<svg xmlns="http://www.w3.org/2000/svg" version="1.1" xmlns:xlink="http://www.w3.org/1999/xlink" xmlns:svgjs="http://svgjs.dev/svgjs" width="2000" height="1999" viewBox="0 0 2000 1999"><g transform="matrix(1,0,0,1,-0.431486880466764,-0.4312711370263287)"><svg viewBox="0 0 343 343" data-background-color="#1f2d5a" preserveAspectRatio="xMidYMid meet" height="1999" width="2000" xmlns="http://www.w3.org/2000/svg" xmlns:xlink="http://www.w3.org/1999/xlink"><g id="tight-bounds" transform="matrix(1,0,0,1,0.0740000000000407,0.07400000000001228)"><svg viewBox="0 0 342.85155851775386 342.85155851775386" height="342.85155851775386" width="342.85155851775386"><g><svg></svg></g><g><svg viewBox="0 0 342.85155851775386 342.85155851775386" height="342.85155851775386" width="342.85155851775386"><g><path d="M0 171.426c0-94.676 76.75-171.426 171.426-171.426 94.676 0 171.426 76.75 171.426 171.426 0 94.676-76.75 171.426-171.426 171.426-94.676 0-171.426-76.75-171.426-171.426zM171.426 340.936c93.618 0 169.51-75.892 169.51-169.51 0-93.618-75.892-169.51-169.51-169.511-93.618 0-169.51 75.892-169.511 169.511 0 93.618 75.892 169.51 169.511 169.51z" data-fill-palette-color="tertiary" fill="#ffffff" stroke="transparent"></path><ellipse rx="164.56874808852186" ry="164.56874808852186" cx="171.42577925887693" cy="171.42577925887693" fill="#ffffff" stroke="transparent" stroke-width="0" fill-opacity="1" data-fill-palette-color="tertiary"></ellipse></g><g transform="matrix(1,0,0,1,64.84655864529837,141.8372913300099)"><svg viewBox="0 0 213.1584412271571 59.17697585773407" height="59.17697585773407" width="213.1584412271571"><g><svg viewBox="0 0 315.6338889170038 87.62617570663946" height="59.17697585773407" width="213.1584412271571"><g transform="matrix(1,0,0,1,102.47544768984667,28.08799086844281)"><svg viewBox="0 0 213.1584412271571 31.450193969753837" height="31.450193969753837" width="213.1584412271571"><g id="textblocktransform"><svg viewBox="0 0 213.1584412271571 31.450193969753837" height="31.450193969753837" width="213.1584412271571" id="textblock"><g><svg viewBox="0 0 213.1584412271571 31.450193969753837" height="31.450193969753837" width="213.1584412271571"><g transform="matrix(1,0,0,1,0,0)"><svg width="213.1584412271571" viewBox="1.4 -39.35 297.17 43.85" height="31.450193969753837" data-palette-color="#1f2d5a"><path d="M1.4 1.4L1.4-8.45 4.55-8.45 4.55-20.85 7.65-20.85 7.65-30.1 10.7-30.1 10.7-39.35 14.35-39.35 14.35-30.1 17.45-30.1 17.45-20.85 20.5-20.85 20.5-8.45 23.6-8.45 23.6 1.4 20 1.4 20-7.95 5.1-7.95 5.1 1.4 1.4 1.4ZM8.15-11.55L16.9-11.55 16.9-20.3 13.8-20.3 13.8-29.55 11.25-29.55 11.25-20.3 8.15-20.3 8.15-11.55ZM29.5 1.4L29.5-27 33.1-27 33.1-23.9 35.65-23.9 35.65-27 45.45-27 45.45-23.4 36.2-23.4 36.2-20.3 33.1-20.3 33.1 1.4 29.5 1.4ZM51.4 0.8L60.7 0.8 60.7-4.85 57.65-4.85 57.65-11 54.55-11 54.55-20.3 51.4-20.3 51.4-27 55.1-27 55.1-20.85 58.15-20.85 58.15-11.55 61.25-11.55 61.25-5.35 63.8-5.35 63.8-11.55 66.9-11.55 66.9-20.85 70-20.85 70-27 73.59-27 73.59-20.3 70.5-20.3 70.5-11 67.45-11 67.45-4.85 64.34-4.85 64.34 1.4 61.25 1.4 61.25 4.5 51.4 4.5 51.4 0.8ZM76.39-1.75L76.39-11.55 79.54-11.55 79.54-14.65 91.89-14.65 91.89-23.4 80.09-23.4 80.09-17.2 76.39-17.2 76.39-23.9 79.54-23.9 79.54-27 92.44-27 92.44-23.9 95.49-23.9 95.49-2.3 98.59-2.3 98.59 1.4 94.99 1.4 94.99-1.75 89.34-1.75 89.34 1.4 79.54 1.4 79.54-1.75 76.39-1.75ZM80.09-2.3L88.79-2.3 88.79-5.35 91.89-5.35 91.89-11 80.09-11 80.09-2.3ZM101.39 1.4L101.39-27 105.09-27 105.09-23.9 107.64-23.9 107.64-27 117.44-27 117.44-23.9 120.49-23.9 120.49-20.85 123.59-20.85 123.59 1.4 119.99 1.4 119.99-20.3 116.89-20.3 116.89-23.4 108.14-23.4 108.14-20.3 105.09-20.3 105.09 1.4 101.39 1.4ZM154.54-1.75L154.54-4.85 151.39-4.85 151.39-11.55 155.09-11.55 155.09-5.35 158.14-5.35 158.14-2.3 166.89-2.3 166.89-5.35 169.99-5.35 169.99-14.1 166.89-14.1 166.89-17.2 157.64-17.2 157.64-20.3 154.54-20.3 154.54-23.4 151.39-23.4 151.39-33.2 154.54-33.2 154.54-36.3 157.64-36.3 157.64-39.35 167.44-39.35 167.44-36.3 170.49-36.3 170.49-33.2 173.59-33.2 173.59-26.45 169.99-26.45 169.99-32.65 166.89-32.65 166.89-35.75 158.14-35.75 158.14-32.65 155.09-32.65 155.09-23.9 158.14-23.9 158.14-20.85 167.44-20.85 167.44-17.75 170.49-17.75 170.49-14.65 173.59-14.65 173.59-4.85 170.49-4.85 170.49-1.75 167.44-1.75 167.44 1.4 157.64 1.4 157.64-1.75 154.54-1.75ZM176.38 1.4L176.38-36.3 180.08-36.3 180.08-23.9 182.63-23.9 182.63-27 192.43-27 192.43-23.9 195.48-23.9 195.48-20.85 198.58-20.85 198.58 1.4 194.98 1.4 194.98-20.3 191.88-20.3 191.88-23.4 183.13-23.4 183.13-20.3 180.08-20.3 180.08 1.4 176.38 1.4ZM204.53-1.75L204.53-4.85 201.38-4.85 201.38-27 205.08-27 205.08-5.35 208.13-5.35 208.13-2.3 216.88-2.3 216.88-5.35 219.98-5.35 219.98-27 223.58-27 223.58 1.4 219.98 1.4 219.98-1.75 217.43-1.75 217.43 1.4 207.63 1.4 207.63-1.75 204.53-1.75ZM226.38 1.4L226.38-36.3 230.08-36.3 230.08-14.65 232.63-14.65 232.63-17.75 235.68-17.75 235.68-20.85 241.88-20.85 241.88-23.9 244.98-23.9 244.98-27 248.58-27 248.58-23.4 245.48-23.4 245.48-20.3 242.43-20.3 242.43-17.2 236.23-17.2 236.23-14.1 233.13-14.1 233.13-11.55 236.23-11.55 236.23-8.45 242.43-8.45 242.43-5.35 245.48-5.35 245.48-2.3 248.58-2.3 248.58 1.4 244.98 1.4 244.98-1.75 241.88-1.75 241.88-4.85 235.68-4.85 235.68-7.95 232.63-7.95 232.63-11 230.08-11 230.08 1.4 226.38 1.4ZM260.63 1.4L260.63-36.3 264.28-36.3 264.28 1.4 260.63 1.4ZM276.37-1.75L276.37-11.55 279.52-11.55 279.52-14.65 291.87-14.65 291.87-23.4 280.07-23.4 280.07-17.2 276.37-17.2 276.37-23.9 279.52-23.9 279.52-27 292.42-27 292.42-23.9 295.47-23.9 295.47-2.3 298.57-2.3 298.57 1.4 294.97 1.4 294.97-1.75 289.32-1.75 289.32 1.4 279.52 1.4 279.52-1.75 276.37-1.75ZM280.07-2.3L288.77-2.3 288.77-5.35 291.87-5.35 291.87-11 280.07-11 280.07-2.3Z" opacity="1" transform="matrix(1,0,0,1,0,0)" fill="#000000" class="wordmark-text-0" data-fill-palette-color="quaternary" id="text-0"></path></svg></g></svg></g></svg></g></svg></g><g><svg viewBox="0 0 87.62617570663946 87.62617570663946" height="87.62617570663946" width="87.62617570663946"><g><svg></svg></g><g id="icon-0"><svg viewBox="0 0 87.62617570663946 87.62617570663946" height="87.62617570663946" width="87.62617570663946"><g><path d="M0 43.813c0-24.197 19.616-43.813 43.813-43.813 24.197 0 43.813 19.616 43.813 43.813 0 24.197-19.616 43.813-43.813 43.813-24.197 0-43.813-19.616-43.813-43.813zM43.813 84.79c22.631 0 40.977-18.346 40.977-40.977 0-22.631-18.346-40.977-40.977-40.977-22.631 0-40.977 18.346-40.977 40.977 0 22.631 18.346 40.977 40.977 40.977z" data-fill-palette-color="quaternary" fill="#000000" stroke="transparent"></path></g><g transform="matrix(1,0,0,1,18.156644424569485,22.10388824608271)"><svg viewBox="0 0 51.31288685750049 43.418399214474036" height="43.418399214474036" width="51.31288685750049"><g><svg xmlns="http://www.w3.org/2000/svg" xmlns:xlink="http://www.w3.org/1999/xlink" version="1.1" x="0" y="0" viewBox="0 13.422 100 84.61500000000001" enable-background="new 0 0 100 100" xml:space="preserve" height="43.418399214474036" width="51.31288685750049" class="icon-dxe-0" data-fill-palette-color="quaternary" id="dxe-0"><g fill="#1f2d5a" data-fill-palette-color="quaternary"><path d="M0 13.422V98.037H100V13.422zM92.308 90.346H7.692V28.807H92.307V90.346z" fill="#000000" data-fill-palette-color="quaternary"></path><rect x="42.002" y="66.065" width="26.488" height="7.775" fill="#000000" data-fill-palette-color="quaternary"></rect><polygon points="15.521,66.064 41.988,55.549 41.988,55.527 42.002,55.533 42.002,47.181 41.988,47.187 41.988,47.165    15.521,36.65 15.515,45.014 31.487,51.357 15.515,57.701  " fill="#000000" data-fill-palette-color="quaternary"></polygon></g></svg></g></svg></g></svg></g></svg></g></svg></g></svg></g></svg></g><defs></defs></svg><rect width="342.85155851775386" height="342.85155851775386" fill="none" stroke="none" visibility="hidden"></rect></g></svg></g></svg>